<svg xmlns="http://www.w3.org/2000/svg" width="800" height="800" viewBox="0 0 800 800" version="1.1">
	<path d="M 130 260.636 C 80.696 265.333, 43.925 289.166, 23.752 329.500 C 18.572 339.858, 15.292 349.687, 12.290 363.849 C 9.836 375.424, 9.605 378.456, 9.567 399.500 C 9.530 419.546, 9.817 423.947, 11.795 433.763 C 17.133 460.245, 26.699 479.174, 43.853 497.200 C 67.570 522.122, 101.082 535, 142.221 535 C 176.786 535, 202.707 527.478, 224.685 511.071 C 244.842 496.023, 260.243 471.587, 267.445 443.221 C 269.174 436.414, 269.499 433.745, 268.640 433.416 C 267.991 433.166, 256.730 433.084, 243.616 433.231 L 219.772 433.500 217.882 441 C 214.815 453.179, 210.660 460.539, 202.009 469.121 C 189.621 481.409, 174.160 487.820, 151.850 489.919 C 137.693 491.251, 122.509 489.759, 110 485.806 C 84.570 477.771, 68.172 459.343, 60.340 430 C 56.927 417.212, 55.893 387.526, 58.368 373.350 C 65.981 329.737, 95.951 305.901, 143 306.039 C 176.078 306.136, 201.994 319.328, 212.658 341.496 C 214.509 345.344, 216.558 351.081, 217.212 354.246 L 218.400 360 243.280 360 L 268.159 360 267.509 356.750 C 262.399 331.213, 250.578 309.221, 233.096 292.729 C 216.399 276.978, 195.083 266.612, 171.121 262.590 C 161.532 260.981, 138.081 259.867, 130 260.636 M 391.538 271.750 C 389.547 293.379, 387.239 305.377, 381.876 321.979 C 370.617 356.830, 352.403 386.812, 328.359 410.069 C 318.084 420.007, 310.079 425.872, 297.500 432.675 L 288.500 437.542 288.500 458.021 L 288.500 478.500 355.750 478.757 L 423 479.014 423 505.007 L 423 531 447 531 L 471 531 471 505 L 471 479 488.020 479 L 505.041 479 504.770 458.250 L 504.500 437.500 487.750 437.226 L 471 436.952 471 417.476 L 471 398 447 398 L 423 398 423 417.500 L 423 437 380.261 437 L 337.521 437 344.511 432.328 C 369.746 415.458, 397.600 386.538, 413.856 360.329 C 420.671 349.341, 428.040 334.394, 432.415 322.682 C 438.889 305.354, 441.758 292.154, 443.485 271.750 L 444.056 265 418.107 265 L 392.159 265 391.538 271.750 M 532 398 L 532 531 556 531 L 580 531 580 506.237 L 580 481.474 594.250 467.271 L 608.500 453.067 636.944 492.034 L 665.388 531 693.801 531 C 718.318 531, 722.137 530.800, 721.653 529.538 C 721.344 528.734, 715.816 520.746, 709.368 511.788 C 702.920 502.830, 685.119 478.049, 669.809 456.720 L 641.973 417.940 681.436 377.220 L 720.899 336.500 691.699 336.209 L 662.500 335.918 658.092 340.709 C 653.399 345.809, 629.654 372.209, 599.121 406.276 L 580.500 427.051 580.244 346.026 L 579.988 265 555.994 265 L 532 265 532 398 M 748.056 474.530 C 740.951 476.525, 736.777 479.816, 734.082 485.549 C 728.959 496.447, 729.328 509.745, 735.029 519.727 C 737.368 523.822, 739.040 525.362, 743.544 527.565 C 754.462 532.907, 773.568 530.849, 779.629 523.679 C 784.751 517.620, 786.391 512.384, 786.417 502 C 786.465 482.915, 778.826 474.311, 761.018 473.391 C 756.191 473.141, 751.552 473.549, 748.056 474.530" stroke="none" fill="currentColor" fill-rule="evenodd"/>
</svg>